<svg id='main-logo' viewBox="0 0 1090 280">
  <g
     id="g2690"
     transform="translate(-412.47092,-549.6715)">
    <g
       id="g1993">
      <path
         style="opacity:1"
         fill="#dd5949"
         d="m 1148.5,586.5 c -2.03,-0.162 -4.03,0.005 -6,0.5 1.82,0.2 3.15,1.034 4,2.5 -6.63,-1.253 -12.96,-3.253 -19,-6 0.5,-0.333 1,-0.667 1.5,-1 6.6,1.552 13.1,2.885 19.5,4 z"
         id="path1991" />
    </g>
    <g
       id="g1997">
      <path
         style="opacity:1"
         fill="#f59c0d"
         d="m 1193.5,593.5 c 1.68,2.226 1.35,3.893 -1,5 -0.67,0 -1,-0.333 -1,-1 2.61,-0.595 2.61,-1.429 0,-2.5 -7.42,-1.514 -14.75,-3.347 -22,-5.5 -1.21,0.774 -1.21,1.607 0,2.5 -2.08,0.192 -4.08,0.692 -6,1.5 4.82,2.578 9.49,5.412 14,8.5 4.51,1.795 9.18,2.961 14,3.5 0,0.333 0,0.667 0,1 -5.78,0.01 -11.45,-0.823 -17,-2.5 -6.94,-3.966 -14.27,-7.133 -22,-9.5 5.17,-1.77 4.84,-2.937 -1,-3.5 5,-0.333 10,-0.667 15,-1 -1.52,-1.685 -3.18,-3.185 -5,-4.5 2.02,-0.541 4.02,-0.041 6,1.5 8.77,1.871 17.44,4.038 26,6.5 z"
         id="path1995" />
    </g>
    <g
       id="g2001">
      <path
         style="opacity:1"
         fill="#804c1d"
         d="m 965.5,582.5 c 3.912,1.244 5.912,3.911 6,8 -0.904,0.709 -1.237,1.709 -1,3 -2.667,0 -5.333,0 -8,0 -0.374,-4.147 0.626,-7.814 3,-11 z"
         id="path1999" />
    </g>
    <g
       id="g2005">
      <path
         style="opacity:1"
         fill="#f9f514"
         d="m 1191.5,597.5 c -1.46,0.067 -2.79,-0.266 -4,-1 -2.62,-0.279 -5.12,-0.946 -7.5,-2 -1.98,2.817 -1.15,4.651 2.5,5.5 2.93,1.145 5.93,1.978 9,2.5 0,1 0,2 0,3 -4.82,-0.539 -9.49,-1.705 -14,-3.5 -4.51,-3.088 -9.18,-5.922 -14,-8.5 1.92,-0.808 3.92,-1.308 6,-1.5 -1.21,-0.893 -1.21,-1.726 0,-2.5 7.25,2.153 14.58,3.986 22,5.5 2.61,1.071 2.61,1.905 0,2.5 z"
         id="path2003" />
    </g>
    <g
       id="g2009">
      <path
         style="opacity:1"
         fill="#3b170c"
         d="m 1187.5,596.5 c -1.22,0.661 -2.55,1.328 -4,2 2.8,1.601 5.8,2.601 9,3 0.28,1.915 -0.05,3.581 -1,5 0,-0.333 0,-0.667 0,-1 0,-1 0,-2 0,-3 -3.07,-0.522 -6.07,-1.355 -9,-2.5 -3.65,-0.849 -4.48,-2.683 -2.5,-5.5 2.38,1.054 4.88,1.721 7.5,2 z"
         id="path2007" />
    </g>
    <g
       id="g2013">
      <path
         style="opacity:1"
         fill="#7e191f"
         d="m 1187.5,596.5 c 1.21,0.734 2.54,1.067 4,1 0,0.667 0.33,1 1,1 1.12,1.152 1.12,2.152 0,3 -3.2,-0.399 -6.2,-1.399 -9,-3 1.45,-0.672 2.78,-1.339 4,-2 z"
         id="path2011" />
    </g>
    <g
       id="g2017">
      <path
         style="opacity:1"
         fill="#fcf2d8"
         d="m 495.5,607.5 c -9.84,-2.333 -19.84,-3.166 -30,-2.5 -1.669,1.669 -3.669,2.502 -6,2.5 0,-1 0,-2 0,-3 11.396,-2.79 22.729,-2.623 34,0.5 1.256,0.417 1.923,1.25 2,2.5 z"
         id="path2015" />
    </g>
    <g
       id="g2021">
      <path
         style="opacity:1"
         fill="#e5492f"
         d="m 1193.5,593.5 c -8.56,-2.462 -17.23,-4.629 -26,-6.5 -1.98,-1.541 -3.98,-2.041 -6,-1.5 1.82,1.315 3.48,2.815 5,4.5 -5,0.333 -10,0.667 -15,1 5.84,0.563 6.17,1.73 1,3.5 7.73,2.367 15.06,5.534 22,9.5 5.55,1.677 11.22,2.51 17,2.5 0,0.667 -0.33,1 -1,1 -6.01,0.166 -12.01,-10e-4 -18,-0.5 -6.4,-3.532 -13.07,-6.532 -20,-9 -7.3,-1.017 -14.63,-1.851 -22,-2.5 6.49,-1.978 13.16,-3.311 20,-4 -1.27,-0.862 -2.6,-1.529 -4,-2 -0.85,-1.466 -2.18,-2.3 -4,-2.5 1.97,-0.495 3.97,-0.662 6,-0.5 3.59,1.256 7.25,1.756 11,1.5 -5.88,-3.185 -11.88,-6.185 -18,-9 -1.21,-0.893 -1.21,-1.726 0,-2.5 2.55,1.442 5.22,2.608 8,3.5 10,2 20,4 30,6 4.96,2.308 9.63,4.808 14,7.5 z"
         id="path2019" />
    </g>
    <g
       id="g2025">
      <path
         style="opacity:1"
         fill="#824a1a"
         d="m 1030.5,599.5 c 5.99,2.113 7.49,6.113 4.5,12 -1.65,1.217 -3.48,2.05 -5.5,2.5 -21.32,1.473 -42.658,2.807 -64,4 -1.124,0.249 -2.124,0.749 -3,1.5 -2.115,3.5 -3.948,7.167 -5.5,11 -6.23,18.687 -11.23,37.687 -15,57 -0.892,6.976 -1.392,13.976 -1.5,21 -3.886,-4.685 -5.553,-10.185 -5,-16.5 0.47,-8.204 1.304,-16.371 2.5,-24.5 3.999,-14.66 7.999,-29.327 12,-44 2.388,-4.943 4.888,-9.776 7.5,-14.5 22.342,-1.524 44.68,-3.191 67,-5 2.73,-0.566 4.73,-2.066 6,-4.5 z"
         id="path2023" />
    </g>
    <g
       id="g2029">
      <path
         style="opacity:1"
         fill="#1a1514"
         d="m 1190.5,607.5 c 0.67,0 1,-0.333 1,-1 0.95,-1.419 1.28,-3.085 1,-5 1.12,-0.848 1.12,-1.848 0,-3 2.35,-1.107 2.68,-2.774 1,-5 1.59,-0.974 2.59,-2.474 3,-4.5 4.94,-1.085 9.94,-1.752 15,-2 -7.32,-7.162 -15.99,-11.995 -26,-14.5 10.24,-0.014 20.24,1.819 30,5.5 4.1,1.922 6.43,5.088 7,9.5 24.02,2.252 43.19,12.919 57.5,32 0.85,1.51 1.68,3.01 2.5,4.5 -0.77,1.221 -1.77,2.221 -3,3 -22.25,10.087 -44.42,9.92 -66.5,-0.5 -4.46,4.826 -9.96,6.659 -16.5,5.5 -8.39,-3.026 -16.39,-6.859 -24,-11.5 0.67,-0.333 1.33,-0.667 2,-1 8.06,3.267 16.39,4.433 25,3.5 0.86,-0.689 1.52,-1.522 2,-2.5 -3.7,-2.862 -7.53,-5.528 -11.5,-8 0.02,-1.607 0.19,-3.274 0.5,-5 z"
         id="path2027" />
    </g>
    <g
       id="g2033">
      <path
         style="opacity:1"
         fill="#939393"
         d="m 1261.5,607.5 c -2.39,4.955 -3.72,10.288 -4,16 -1.22,2.791 -2.55,5.624 -4,8.5 -20.26,1.633 -38.26,-3.867 -54,-16.5 1.3,-2.927 2.3,-5.927 3,-9 4.29,0.892 8.46,2.225 12.5,4 0.77,-0.145 1.44,-0.478 2,-1 0.49,-1.634 0.66,-3.301 0.5,-5 -4.29,-1.207 -8.62,-2.207 -13,-3 0.43,-3.999 1.43,-7.832 3,-11.5 19.48,-1.838 37.32,2.662 53.5,13.5 0.49,1.293 0.66,2.627 0.5,4 z"
         id="path2031" />
    </g>
    <g
       id="g2037">
      <path
         style="opacity:1"
         fill="#af1616"
         d="m 1257.5,623.5 c 1.96,-5.042 3.3,-10.375 4,-16 1.25,-0.077 2.08,-0.744 2.5,-2 6.82,4.65 11.99,10.65 15.5,18 -1.38,2.205 -3.38,3.705 -6,4.5 -5.61,1.815 -11.27,3.315 -17,4.5 0.46,-2.982 0.8,-5.982 1,-9 z"
         id="path2035" />
    </g>
    <g
       id="g2041">
      <path
         style="opacity:1"
         fill="#4e5959"
         d="m 1194.5,604.5 c 2.35,0.338 4.69,0.838 7,1.5 -1.1,3.039 -2.6,5.873 -4.5,8.5 -1.8,-0.813 -3.3,-1.98 -4.5,-3.5 0.77,-2.154 1.44,-4.321 2,-6.5 z"
         id="path2039" />
    </g>
    <g
       id="g2045">
      <path
         style="opacity:1"
         fill="#1a0d0e"
         d="m 1261.5,607.5 c -0.7,5.625 -2.04,10.958 -4,16 0.28,-5.712 1.61,-11.045 4,-16 z"
         id="path2043" />
    </g>
    <g
       id="g2049">
      <path
         style="opacity:1"
         fill="#842624"
         d="m 1203.5,603.5 c 4.31,-0.228 8.31,0.772 12,3 -1.92,1.141 -3.92,1.308 -6,0.5 -2.52,-0.586 -4.52,-1.753 -6,-3.5 z"
         id="path2047" />
    </g>
    <g
       id="g2053">
      <path
         style="opacity:1"
         fill="#151c1f"
         d="m 1233.5,601.5 c 11.99,-1.843 17.16,3.157 15.5,15 -3.13,5.827 -7.97,7.993 -14.5,6.5 -6.41,-3.323 -8.57,-8.489 -6.5,-15.5 1.36,-2.523 3.19,-4.523 5.5,-6 z"
         id="path2051" />
    </g>
    <g
       id="g2057">
      <path
         style="opacity:1"
         fill="#87c5d0"
         d="m 1234.5,602.5 c 10.68,-0.172 14.84,4.828 12.5,15 -3.66,3.867 -8.16,5.034 -13.5,3.5 -6.77,-6.567 -6.43,-12.733 1,-18.5 z"
         id="path2055" />
    </g>
    <g
       id="g2061">
      <path
         style="opacity:1"
         fill="#7b1517"
         d="m 1198.5,600.5 c 0.9,0.658 1.9,1.324 3,2 -1.9,0.966 -3.9,1.299 -6,1 0,-1 0,-2 0,-3 1,0 2,0 3,0 z"
         id="path2059" />
    </g>
    <g
       id="g2065">
      <path
         style="opacity:1"
         fill="#4c5959"
         d="m 1198.5,600.5 c -0.78,-0.656 -1.44,-1.489 -2,-2.5 1.37,-2.319 2.04,-4.819 2,-7.5 2,0 4,0 6,0 -0.71,3.286 -1.04,6.619 -1,10 -1.67,0 -3.33,0 -5,0 z"
         id="path2063" />
    </g>
    <g
       id="g2069">
      <path
         style="opacity:1"
         fill="#9c1819"
         d="m 1199.5,576.5 c 8.05,-1.031 14.88,1.636 20.5,8 0.48,0.948 0.65,1.948 0.5,3 -2.4,0.863 -4.73,0.863 -7,0 -0.75,-2.253 -2.09,-4.087 -4,-5.5 -3.23,-2.112 -6.56,-3.945 -10,-5.5 z"
         id="path2067" />
    </g>
    <g
       id="g2073">
      <path
         style="opacity:1"
         fill="#972221"
         d="m 1202.5,623.5 c 0.13,0.876 -0.2,1.543 -1,2 -2.04,0.541 -4.04,1.208 -6,2 3.61,0.989 7.27,1.323 11,1 0,-1.667 0,-3.333 0,-5 3.06,0.103 4.06,1.436 3,4 -7.58,4.139 -14.91,3.639 -22,-1.5 5.21,-0.012 10.21,-0.845 15,-2.5 z"
         id="path2071" />
    </g>
    <g
       id="g2077">
      <path
         style="opacity:1"
         fill="#bb1212"
         d="m 1202.5,623.5 c 1.33,0 2.67,0 4,0 0,1.667 0,3.333 0,5 -3.73,0.323 -7.39,-0.011 -11,-1 1.96,-0.792 3.96,-1.459 6,-2 0.8,-0.457 1.13,-1.124 1,-2 z"
         id="path2075" />
    </g>
    <g
       id="g2081">
      <path
         style="opacity:1"
         fill="#834b1b"
         d="m 1456.5,653.5 c 3.34,2.008 5.18,5.008 5.5,9 0,9.684 -0.5,19.35 -1.5,29 -1.97,0.239 -3.8,-0.094 -5.5,-1 -0.53,-12.393 -0.03,-24.726 1.5,-37 z"
         id="path2079" />
    </g>
    <g
       id="g2085">
      <path
         style="opacity:1"
         fill="#804c1e"
         d="m 444.5,671.5 c 5.63,2.912 11.63,4.912 18,6 16.329,-0.5 32.662,-0.833 49,-1 0.996,-0.086 1.829,0.248 2.5,1 0.497,2.31 0.663,4.643 0.5,7 -16.685,0.624 -33.352,1.124 -50,1.5 -9.052,-1.554 -15.719,-6.387 -20,-14.5 z"
         id="path2083" />
    </g>
    <g
       id="g2089">
      <path
         style="opacity:1"
         fill="#824b1b"
         d="m 1192.5,681.5 c -1.31,-0.976 -2.65,-1.976 -4,-3 -11.03,24.696 -28.36,43.696 -52,57 0.72,27.367 -8.95,50.2 -29,68.5 -9.33,6.725 -19.33,8.059 -30,4 -3.58,-3.078 -6.58,-6.578 -9,-10.5 15.76,5.881 29.26,2.548 40.5,-10 15.32,-17.79 22.15,-38.457 20.5,-62 11.7,-5.838 22.2,-13.505 31.5,-23 4.67,-6 9.33,-12 14,-18 3.05,-5.158 5.72,-10.492 8,-16 2.36,3.858 5.52,6.858 9.5,9 1.28,1.458 1.28,2.792 0,4 z"
         id="path2087" />
    </g>
    <g
       id="g2093">
      <path
         style="opacity:1"
         fill="#804a1c"
         d="m 1440.5,665.5 c -6.13,1.317 -11.3,4.317 -15.5,9 -7.22,11.285 -14.06,22.785 -20.5,34.5 -3.33,2 -6.67,2 -10,0 -2.04,-3.012 -3.7,-6.179 -5,-9.5 3.7,1.577 7.2,1.244 10.5,-1 4.77,-7.199 8.77,-14.866 12,-23 4.53,-8.525 11.03,-15.025 19.5,-19.5 3.26,-1.043 6.59,-1.543 10,-1.5 0.26,3.769 -0.08,7.436 -1,11 z"
         id="path2091" />
    </g>
    <g
       id="g2097">
      <path
         style="opacity:1"
         fill="#fb8907"
         d="m 965.5,582.5 c -2.374,3.186 -3.374,6.853 -3,11 2.667,0 5.333,0 8,0 4.934,0.271 9.6,-0.396 14,-2 14.043,-0.053 28.04,-0.553 42,-1.5 3.46,2.195 4.8,5.361 4,9.5 -1.27,2.434 -3.27,3.934 -6,4.5 -22.32,1.809 -44.658,3.476 -67,5 -2.612,4.724 -5.112,9.557 -7.5,14.5 -4.001,14.673 -8.001,29.34 -12,44 -1.196,8.129 -2.03,16.296 -2.5,24.5 -0.553,6.315 1.114,11.815 5,16.5 1.513,3.852 4.346,6.185 8.5,7 14.917,-5.916 27.25,-15.25 37,-28 7.577,-14.247 17.41,-26.747 29.5,-37.5 6.56,-5.809 13.23,-5.809 20,0 1.29,2.022 2.29,4.189 3,6.5 4.35,0.378 6.02,2.711 5,7 -0.59,1.743 -0.92,3.576 -1,5.5 1.32,8.809 2.49,17.643 3.5,26.5 0.88,2.135 2.38,3.469 4.5,4 0.11,0.617 0.44,1.117 1,1.5 6.71,2.333 10.88,0.167 12.5,-6.5 0.53,-5.844 0.36,-11.678 -0.5,-17.5 4.01,-21.679 16.68,-35.346 38,-41 6.33,-0.667 12.67,-0.667 19,0 0.63,3.367 1.63,6.534 3,9.5 3.87,20.8 6.2,41.8 7,63 1.35,-1.024 2.69,-2.024 4,-3 5.7,-4.29 11.2,-8.957 16.5,-14 4.25,-6.593 8.92,-12.926 14,-19 5.05,-11.878 8.39,-24.211 10,-37 4.63,-4.146 8.96,-3.813 13,1 0.5,1.973 0.66,3.973 0.5,6 0.35,6.027 2.35,11.36 6,16 2.1,3.269 4.93,5.603 8.5,7 5.71,-1.89 11.55,-2.723 17.5,-2.5 1.43,0.465 2.6,1.299 3.5,2.5 0.29,2.42 0.79,4.754 1.5,7 -3.56,3.375 -7.89,5.541 -13,6.5 -1.88,1.543 -3.38,3.376 -4.5,5.5 -0.67,4.667 -0.67,9.333 0,14 1.33,1.082 2.83,1.749 4.5,2 9.11,1.041 16.61,-2.292 22.5,-10 11.74,-19.077 26.91,-34.91 45.5,-47.5 13.1,-5.445 22.1,-1.612 27,11.5 0.31,8.747 -0.36,17.414 -2,26 -0.22,4.58 1.78,7.58 6,9 5.43,7.407 12.43,8.907 21,4.5 8.89,-4.769 12.55,-12.269 11,-22.5 -1.16,-12.365 -1.16,-24.699 0,-37 3.34,-2.812 6.51,-2.479 9.5,1 0.99,2.308 1.82,4.641 2.5,7 0.39,5.693 1.06,11.359 2,17 1.34,-1.671 2.67,-3.338 4,-5 9.67,-10.657 21.67,-16.99 36,-19 2.93,-0.034 5.6,0.799 8,2.5 3.3,3.526 5.97,7.359 8,11.5 9.66,-7.83 20.66,-10.997 33,-9.5 5.48,2.974 8.82,7.474 10,13.5 -1.53,12.274 -2.03,24.607 -1.5,37 1.7,0.906 3.53,1.239 5.5,1 7.87,-3.393 15.37,-7.393 22.5,-12 6.07,1.23 8.9,4.896 8.5,11 -8.56,6.78 -17.89,12.28 -28,16.5 -6.25,1.315 -11.92,0.148 -17,-3.5 -3.12,-2.224 -5.29,-5.224 -6.5,-9 -0.73,-9.694 -0.56,-19.36 0.5,-29 0.92,-3.564 1.26,-7.231 1,-11 -3.41,-0.043 -6.74,0.457 -10,1.5 -8.47,4.475 -14.97,10.975 -19.5,19.5 -3.23,8.134 -7.23,15.801 -12,23 -3.3,2.244 -6.8,2.577 -10.5,1 -2.9,-1.805 -4.24,-4.471 -4,-8 3.28,-9.121 5.95,-18.455 8,-28 1.76,-3.773 2.76,-7.773 3,-12 -7.75,1.063 -14.42,4.396 -20,10 -9.14,10.635 -17.3,21.969 -24.5,34 -17.93,20.549 -36.59,21.215 -56,2 -11.81,13.834 -26.65,19.667 -44.5,17.5 -4.22,-2.552 -7.39,-6.052 -9.5,-10.5 -12.36,12.4 -26.52,15.066 -42.5,8 -7.35,-9.059 -9.68,-19.393 -7,-31 1.28,-1.208 1.28,-2.542 0,-4 -3.98,-2.142 -7.14,-5.142 -9.5,-9 -2.28,5.508 -4.95,10.842 -8,16 -4.67,6 -9.33,12 -14,18 -9.3,9.495 -19.8,17.162 -31.5,23 1.65,23.543 -5.18,44.21 -20.5,62 -11.24,12.548 -24.74,15.881 -40.5,10 -16.06,-25.132 -12.39,-46.965 11,-65.5 8.63,-3.929 17.29,-7.929 26,-12 2.95,-1.131 5.95,-1.964 9,-2.5 0.32,-4.202 -0.02,-8.202 -1,-12 1.28,-4.949 1.28,-9.949 0,-15 -3.96,4.462 -8.63,7.962 -14,10.5 -7.13,0.723 -14.13,0.39 -21,-1 -5.09,13.383 -14.76,18.716 -29,16 -3.97,-1.319 -7.64,-3.153 -11,-5.5 -0.33,0 -0.67,0 -1,0 -2.06,-3.118 -3.9,-6.452 -5.5,-10 -2.46,3.465 -5.3,6.631 -8.5,9.5 -4.6,2.27 -8.93,4.937 -13,8 -4.9,1.325 -9.9,1.825 -15,1.5 -0.333,-1 -1,-1.667 -2,-2 -3.11,-2.902 -4.61,-6.568 -4.5,-11 -12.663,13.583 -28.163,21.083 -46.5,22.5 -3.999,-1.333 -7.666,-3.166 -11,-5.5 -4.498,-6.666 -8.165,-13.666 -11,-21 0.166,-5.676 -10e-4,-11.343 -0.5,-17 -5.806,8.473 -12.973,15.639 -21.5,21.5 -9.395,4.537 -19.061,8.203 -29,11 -9.288,2.524 -18.288,1.858 -27,-2 -3.064,-2.207 -5.064,-5.041 -6,-8.5 -10.469,3.997 -20.803,8.497 -31,13.5 -8.148,1.37 -16.148,3.37 -24,6 -7.333,0.667 -14.667,0.667 -22,0 -4.367,-1.453 -8.534,-3.286 -12.5,-5.5 -12.635,13.52 -27.135,15.686 -43.5,6.5 -4.653,-3.809 -8.486,-8.309 -11.5,-13.5 -4.218,7.218 -10.052,12.718 -17.5,16.5 -5.997,2.314 -11.664,1.814 -17,-1.5 -0.992,0.172 -1.658,-0.162 -2,-1 -1.656,-3.278 -3.323,-6.611 -5,-10 -5.254,3.113 -10.588,5.946 -16,8.5 -8.321,0.809 -16.154,-0.691 -23.5,-4.5 -17.352,10.911 -33.185,9.078 -47.5,-5.5 -1,-0.667 -2,-0.667 -3,0 -7.764,27.674 -15.93,55.174 -24.5,82.5 -2.259,4.857 -4.259,9.857 -6,15 -2.283,2.523 -5.116,3.856 -8.5,4 -2.56,-0.72 -4.393,-2.387 -5.5,-5 -0.667,-4.667 -0.667,-9.333 0,-14 4.759,-15.522 10.093,-30.855 16,-46 1.15,-3.612 1.983,-7.278 2.5,-11 1.157,-2.773 1.824,-5.773 2,-9 -10.645,0.837 -20.978,-0.497 -31,-4 -4.511,2.995 -9.178,5.828 -14,8.5 -12.688,4.211 -25.688,5.878 -39,5 -6.021,-1.835 -11.688,-4.335 -17,-7.5 -10.993,-12.846 -8.993,-23.346 6,-31.5 3.667,-0.167 7.333,-0.333 11,-0.5 10.031,1.506 20.031,3.339 30,5.5 6.255,1.127 12.255,0.46 18,-2 7.112,-6.073 11.778,-13.573 14,-22.5 0.163,-2.357 -0.003,-4.69 -0.5,-7 -0.671,-0.752 -1.504,-1.086 -2.5,-1 -4.577,-1.49 -9.41,-2.156 -14.5,-2 -11.628,1.184 -23.128,2.184 -34.5,3 -6.37,-1.088 -12.37,-3.088 -18,-6 -14.392,-17.169 -14.558,-34.503 -0.5,-52 4.757,-4.598 9.924,-8.598 15.5,-12 2.331,0.002 4.331,-0.831 6,-2.5 10.16,-0.666 20.16,0.167 30,2.5 8.153,4.305 15.653,9.638 22.5,16 0.791,1.245 1.291,2.578 1.5,4 -0.774,10.281 -5.774,12.781 -15,7.5 -7.806,-8.57 -17.473,-13.403 -29,-14.5 -17.255,2.083 -25.755,11.75 -25.5,29 0.611,3.57 2.444,6.237 5.5,8 2.28,1.267 4.78,2.267 7.5,3 19.321,-5.482 38.821,-6.315 58.5,-2.5 2.833,2.833 5.667,5.667 8.5,8.5 1.411,2.15 2.245,4.484 2.5,7 0.164,11.323 -2.336,21.99 -7.5,32 -2.994,3.32 -5.494,6.987 -7.5,11 3.607,0.989 7.274,1.323 11,1 6.385,1.395 11.218,-0.938 14.5,-7 5.857,-13.707 11.69,-27.374 17.5,-41 7.68,-4.022 12.347,-1.688 14,7 6.127,-5.117 13.127,-8.451 21,-10 4.014,-0.166 8.014,10e-4 12,0.5 3.59,2.614 6.924,5.448 10,8.5 -0.241,2.398 0.426,4.398 2,6 0.65,1.935 0.983,3.935 1,6 0.278,6.879 -0.055,13.712 -1,20.5 1.454,2.728 3.788,3.894 7,3.5 9.598,-0.157 16.264,-4.823 20,-14 4.807,-8.495 10.473,-16.495 17,-24 3.782,-4.04 8.115,-7.374 13,-10 0.333,0 0.667,0 1,0 1.333,0 2.667,0 4,0 3.682,-0.165 7.348,10e-4 11,0.5 1.787,1.319 3.787,2.152 6,2.5 3.097,3.198 5.431,6.864 7,11 -2.698,10.951 -2.532,21.951 0.5,33 1.049,2.118 2.549,3.784 4.5,5 2.705,3.67 6.372,4.837 11,3.5 5.859,-0.014 10.359,-2.514 13.5,-7.5 5.076,-14.225 10.743,-28.225 17,-42 3.167,-3.167 6.333,-6.333 9.5,-9.5 10.569,-6.825 20.069,-5.658 28.5,3.5 1.136,2.243 1.97,4.576 2.5,7 2.285,11.762 -2.048,20.096 -13,25 -1.322,0.17 -2.489,-0.163 -3.5,-1 -1.791,-2.85 -2.958,-5.85 -3.5,-9 2.157,-2.304 3.824,-4.971 5,-8 -0.471,-2.802 -2.138,-4.136 -5,-4 -7.559,1.724 -12.392,6.39 -14.5,14 -2.939,7.084 -3.939,14.417 -3,22 1.087,2.314 2.921,3.648 5.5,4 5.011,0.166 10.011,-10e-4 15,-0.5 20.192,-3.926 39.026,-11.093 56.5,-21.5 3.218,-19.553 13.718,-33.72 31.5,-42.5 5.333,-0.667 10.667,-0.667 16,0 6.045,1.541 9.378,5.374 10,11.5 -5.685,19.52 -18.352,32.353 -38,38.5 -2.468,3.593 -1.301,5.427 3.5,5.5 7.276,-0.172 14.11,-1.838 20.5,-5 3.923,-1.295 7.59,-3.128 11,-5.5 5.684,-0.759 10.518,-3.259 14.5,-7.5 2.28,-3.947 4.947,-7.613 8,-11 4.143,-8.954 8.81,-17.62 14,-26 4.579,-8.569 8.079,-17.569 10.5,-27 2.101,-3.297 3.435,-6.963 4,-11 -3.966,0.662 -7.966,0.995 -12,1 -2.792,0.048 -4.625,-1.285 -5.5,-4 -1.31,-4.694 0.19,-8.194 4.5,-10.5 6.373,-0.741 12.707,-1.741 19,-3 2.218,-4.605 3.718,-9.439 4.5,-14.5 1.561,-3.283 3.727,-6.117 6.5,-8.5 7.35,-0.485 11.017,3.015 11,10.5 z"
         id="path2095" />
    </g>
    <g
       id="g2101">
      <path
         style="opacity:1"
         fill="#f8f8f0"
         d="m 626.5,696.5 c 1.333,0.333 2.667,0.667 4,1 5.333,0 10.667,0 16,0 -3.736,9.177 -10.402,13.843 -20,14 0,-0.333 0,-0.667 0,-1 0,-4.667 0,-9.333 0,-14 z"
         id="path2099" />
    </g>
    <g
       id="g2105">
      <path
         style="opacity:1"
         fill="#fcf9f1"
         d="m 602.5,694.5 c 2.722,11.315 -1.944,17.315 -14,18 -2.367,-0.342 -4.7,-0.842 -7,-1.5 -1.442,-0.377 -2.442,-1.21 -3,-2.5 4.991,-5.822 10.991,-10.322 18,-13.5 1.973,-0.495 3.973,-0.662 6,-0.5 z"
         id="path2103" />
    </g>
    <g
       id="g2109">
      <path
         style="opacity:1"
         fill="#804a1a"
         d="m 602.5,694.5 c -2.027,-0.162 -4.027,0.005 -6,0.5 -7.009,3.178 -13.009,7.678 -18,13.5 -2.931,-1.591 -5.598,-3.591 -8,-6 5.329,-7.167 11.996,-12.667 20,-16.5 8.156,-2.652 12.156,0.181 12,8.5 z"
         id="path2107" />
    </g>
    <g
       id="g2113">
      <path
         style="opacity:1"
         fill="#864d1b"
         d="m 705.5,677.5 c 2.262,2.185 3.762,4.852 4.5,8 0.108,10.053 0.274,20.053 0.5,30 -1.951,-1.216 -3.451,-2.882 -4.5,-5 -3.032,-11.049 -3.198,-22.049 -0.5,-33 z"
         id="path2111" />
    </g>
    <g
       id="g2117">
      <path
         style="opacity:1"
         fill="#7d4d26"
         d="m 619.5,681.5 c 1.212,0.73 2.212,1.73 3,3 0.728,3.866 1.728,7.533 3,11 0,0.667 0.333,1 1,1 0,4.667 0,9.333 0,14 -2.471,0.267 -4.138,-0.733 -5,-3 0.591,-3.635 0.924,-7.302 1,-11 -0.017,-3.413 -0.684,-6.413 -2,-9 -0.017,-2.065 -0.35,-4.065 -1,-6 z"
         id="path2115" />
    </g>
    <g
       id="g2121">
      <path
         style="opacity:1"
         fill="#804b1d"
         d="m 689.5,689.5 c -12.076,5.491 -18.743,14.825 -20,28 -2.738,0.535 -4.572,-0.465 -5.5,-3 -1.685,-16.012 4.815,-27.512 19.5,-34.5 2.269,-0.758 4.436,-0.591 6.5,0.5 0.736,3.092 0.569,6.092 -0.5,9 z"
         id="path2119" />
    </g>
    <g
       id="g2125">
      <path
         style="opacity:1"
         fill="#41c6ac"
         d="m 631.5,689.5 c -2.15,2.422 -2.483,5.089 -1,8 -1.333,-0.333 -2.667,-0.667 -4,-1 -0.667,0 -1,-0.333 -1,-1 1.784,-1.074 2.951,-2.74 3.5,-5 0.671,-0.752 1.504,-1.086 2.5,-1 z"
         id="path2123" />
    </g>
    <g
       id="g2129">
      <path
         style="opacity:1"
         fill="#804a1c"
         d="m 792.5,670.5 c 3.056,1.763 4.889,4.43 5.5,8 1.948,8.515 0.114,16.015 -5.5,22.5 -7.899,6.07 -12.232,4.236 -13,-5.5 10.952,-4.904 15.285,-13.238 13,-25 z"
         id="path2127" />
    </g>
    <g
       id="g2133">
      <path
         style="opacity:1"
         fill="#fbf7ee"
         d="m 689.5,689.5 c -3.767,10.283 -9.433,19.449 -17,27.5 -0.948,0.483 -1.948,0.649 -3,0.5 1.257,-13.175 7.924,-22.509 20,-28 z"
         id="path2131" />
    </g>
    <g
       id="g2137">
      <path
         style="opacity:1"
         fill="#814a1a"
         d="m 1225.5,672.5 c 6.25,3.83 6.58,8.33 1,13.5 -8.27,1.44 -12.94,6.273 -14,14.5 -1.67,-0.251 -3.17,-0.918 -4.5,-2 -0.67,-4.667 -0.67,-9.333 0,-14 1.12,-2.124 2.62,-3.957 4.5,-5.5 5.11,-0.959 9.44,-3.125 13,-6.5 z"
         id="path2135" />
    </g>
    <g
       id="g2141">
      <path
         style="opacity:1"
         fill="#814c1d"
         d="m 1123.5,645.5 c 1.32,-0.17 2.49,0.163 3.5,1 4.61,19.406 7.11,39.073 7.5,59 -1.31,0.976 -2.65,1.976 -4,3 -0.8,-21.2 -3.13,-42.2 -7,-63 z"
         id="path2139" />
    </g>
    <g
       id="g2145">
      <path
         style="opacity:1"
         fill="#36d878"
         d="m 646.5,671.5 c 0.359,1.871 1.359,3.371 3,4.5 3,0.667 6,0.667 9,0 1.41,-1.372 3.077,-2.205 5,-2.5 -6.527,7.505 -12.193,15.505 -17,24 -5.333,0 -10.667,0 -16,0 -1.483,-2.911 -1.15,-5.578 1,-8 0.556,-6.609 0.556,-13.275 0,-20 1.842,-0.223 3.675,-0.557 5.5,-1 3.116,1.312 6.282,2.312 9.5,3 z"
         id="path2143" />
    </g>
    <g
       id="g2149">
      <path
         style="opacity:1"
         fill="#fcfaf5"
         d="m 1291.5,667.5 c -2.07,19.743 -13.07,31.076 -33,34 1.31,-3.278 3.14,-6.278 5.5,-9 8.46,-9.301 17.63,-17.634 27.5,-25 z"
         id="path2147" />
    </g>
    <g
       id="g2153">
      <path
         style="opacity:1"
         fill="#814a1b"
         d="m 1291.5,667.5 c -9.87,7.366 -19.04,15.699 -27.5,25 -2.36,2.722 -4.19,5.722 -5.5,9 -5.91,-2.723 -7.41,-7.057 -4.5,-13 9.18,-11.702 19.68,-22.202 31.5,-31.5 1.97,-0.495 3.97,-0.662 6,-0.5 0.29,3.816 0.29,7.483 0,11 z"
         id="path2151" />
    </g>
    <g
       id="g2157">
      <path
         style="opacity:1"
         fill="#814a1b"
         d="m 889.5,660.5 c 4.689,3.488 6.189,8.155 4.5,14 -4.105,9.927 -10.272,18.261 -18.5,25 -6.39,3.162 -13.224,4.828 -20.5,5 -4.801,-0.073 -5.968,-1.907 -3.5,-5.5 19.648,-6.147 32.315,-18.98 38,-38.5 z"
         id="path2155" />
    </g>
    <g
       id="g2161">
      <path
         style="opacity:1"
         fill="#814a1b"
         d="m 772.5,685.5 c -3.389,2.225 -5.889,5.225 -7.5,9 -2.606,6.089 -4.106,12.422 -4.5,19 -2.579,-0.352 -4.413,-1.686 -5.5,-4 -0.939,-7.583 0.061,-14.916 3,-22 2.108,-7.61 6.941,-12.276 14.5,-14 2.862,-0.136 4.529,1.198 5,4 -1.176,3.029 -2.843,5.696 -5,8 z"
         id="path2159" />
    </g>
    <g
       id="g2165">
      <path
         style="opacity:1"
         fill="#fbf7ef"
         d="m 1025.5,675.5 c 0.58,10.47 -4.42,17.137 -15,20 2.73,-8.396 7.73,-15.062 15,-20 z"
         id="path2163" />
    </g>
    <g
       id="g2169">
      <path
         style="opacity:1"
         fill="#834c1d"
         d="m 1307.5,654.5 c 4.23,3.602 6.06,8.268 5.5,14 0.55,7.079 0.05,14.079 -1.5,21 -4.22,-1.42 -6.22,-4.42 -6,-9 1.64,-8.586 2.31,-17.253 2,-26 z"
         id="path2167" />
    </g>
    <g
       id="g2173">
      <path
         style="opacity:1"
         fill="#854d1a"
         d="m 1043.5,663.5 c 0.9,0.709 1.24,1.709 1,3 1.64,-0.214 3.14,0.12 4.5,1 0.46,4.177 0.29,8.343 -0.5,12.5 0.78,6.496 1.44,12.996 2,19.5 -2.12,-0.531 -3.62,-1.865 -4.5,-4 -1.01,-8.857 -2.18,-17.691 -3.5,-26.5 0.08,-1.924 0.41,-3.757 1,-5.5 z"
         id="path2171" />
    </g>
    <g
       id="g2177">
      <path
         style="opacity:1"
         fill="#874a16"
         d="m 867.5,663.5 c 1.699,-0.16 3.366,0.006 5,0.5 -5.574,8.906 -13.074,15.739 -22.5,20.5 2.649,-9.496 8.482,-16.496 17.5,-21 z"
         id="path2175" />
    </g>
    <g
       id="g2181">
      <path
         style="opacity:1"
         fill="#985006"
         d="m 511.5,676.5 c -16.338,0.167 -32.671,0.5 -49,1 11.372,-0.816 22.872,-1.816 34.5,-3 5.09,-0.156 9.923,0.51 14.5,2 z"
         id="path2179" />
    </g>
    <g
       id="g2185">
      <path
         style="opacity:1"
         fill="#824b19"
         d="m 1025.5,675.5 c -7.27,4.938 -12.27,11.604 -15,20 -2.66,1.768 -5.66,2.435 -9,2 1.07,-12.924 6.74,-23.424 17,-31.5 7.72,-1.054 10.06,2.113 7,9.5 z"
         id="path2183" />
    </g>
    <g
       id="g2189">
      <path
         style="opacity:1"
         fill="#3ccb96"
         d="m 676.5,663.5 c -4.885,2.626 -9.218,5.96 -13,10 -1.923,0.295 -3.59,1.128 -5,2.5 -3,0.667 -6,0.667 -9,0 -1.641,-1.129 -2.641,-2.629 -3,-4.5 4.706,3.71 9.706,3.877 15,0.5 3.482,-5.675 8.482,-8.508 15,-8.5 z"
         id="path2187" />
    </g>
    <g
       id="g2193">
      <path
         style="opacity:1"
         fill="#fbfaf4"
         d="m 1108.5,662.5 c -0.75,9.895 -5.09,17.729 -13,23.5 -3.34,0.906 -6.34,0.406 -9,-1.5 1.66,-12.998 9,-20.332 22,-22 z"
         id="path2191" />
    </g>
    <g
       id="g2197">
      <path
         style="opacity:1"
         fill="#fbd8a9"
         d="m 681.5,663.5 c 0,-0.333 0,-0.667 0,-1 4.014,-0.166 8.014,10e-4 12,0.5 1.931,0.902 3.597,2.069 5,3.5 -2.213,-0.348 -4.213,-1.181 -6,-2.5 -3.652,-0.499 -7.318,-0.665 -11,-0.5 z"
         id="path2195" />
    </g>
    <g
       id="g2201">
      <path
         style="opacity:1"
         fill="#1daecd"
         d="m 610.5,655.5 c -0.643,3.933 0.357,7.266 3,10 -3.17,-1.006 -5.17,-3.172 -6,-6.5 0.207,-1.95 1.207,-3.116 3,-3.5 z"
         id="path2199" />
    </g>
    <g
       id="g2205">
      <path
         style="opacity:1"
         fill="#4acf8c"
         d="m 682.5,657.5 c 0.134,1.792 -0.199,3.458 -1,5 0,0.333 0,0.667 0,1 -1.333,0 -2.667,0 -4,0 0.212,-3.212 1.879,-5.212 5,-6 z"
         id="path2203" />
    </g>
    <g
       id="g2209">
      <path
         style="opacity:1"
         fill="#814a1a"
         d="m 1108.5,662.5 c -13,1.668 -20.34,9.002 -22,22 -1.29,1.145 -2.46,0.811 -3.5,-1 -4.54,-14.066 -0.04,-23.9 13.5,-29.5 4.22,-1.446 8.56,-2.28 13,-2.5 0.26,3.769 -0.08,7.436 -1,11 z"
         id="path2207" />
    </g>
    <g
       id="g2213">
      <path
         style="opacity:1"
         fill="#875123"
         d="m 1355.5,642.5 c 4.3,2.654 6.3,6.654 6,12 -1.33,1.662 -2.66,3.329 -4,5 -0.94,-5.641 -1.61,-11.307 -2,-17 z"
         id="path2211" />
    </g>
    <g
       id="g2217">
      <path
         style="opacity:1"
         fill="#804f1f"
         d="m 1188.5,642.5 c 2.23,0.728 4.07,2.061 5.5,4 0.5,3.986 0.67,7.986 0.5,12 -3.65,-4.64 -5.65,-9.973 -6,-16 z"
         id="path2215" />
    </g>
    <g
       id="g2221">
      <path
         style="opacity:1"
         fill="#ef9e45"
         d="m 1343.5,634.5 c -1.16,12.301 -1.16,24.635 0,37 -1.9,-11.122 -2.74,-22.455 -2.5,-34 0.38,-1.442 1.21,-2.442 2.5,-3 z"
         id="path2219" />
    </g>
    <g
       id="g2225">
      <path
         style="opacity:1"
         fill="#0a9ff5"
         d="m 661.5,616.5 c -1.068,0.934 -2.401,1.268 -4,1 -0.291,-1.149 -1.124,-1.816 -2.5,-2 -2.407,1.13 -4.907,1.963 -7.5,2.5 -1.247,2.016 -2.581,3.849 -4,5.5 -0.819,2.805 -1.319,5.805 -1.5,9 -1.045,0.873 -1.878,1.873 -2.5,3 -2.852,-0.148 -4.519,1.186 -5,4 2.211,2.785 4.877,5.118 8,7 0.886,0.825 1.219,1.825 1,3 2.121,0.175 4.121,-0.159 6,-1 1.544,-0.203 2.878,-0.87 4,-2 0.853,-2.978 1.519,-5.978 2,-9 3.385,0.71 5.719,-0.456 7,-3.5 -0.07,-0.765 -0.403,-1.265 -1,-1.5 -0.333,-2.667 -0.667,-5.333 -1,-8 1.459,0.067 2.792,-0.266 4,-1 0.934,-1.068 1.268,-2.401 1,-4 12.708,9.422 18.374,22.089 17,38 -3.121,0.788 -4.788,2.788 -5,6 -0.333,0 -0.667,0 -1,0 -6.518,-0.008 -11.518,2.825 -15,8.5 -5.294,3.377 -10.294,3.21 -15,-0.5 -3.218,-0.688 -6.384,-1.688 -9.5,-3 -1.825,0.443 -3.658,0.777 -5.5,1 0.556,6.725 0.556,13.391 0,20 -0.996,-0.086 -1.829,0.248 -2.5,1 -0.549,2.26 -1.716,3.926 -3.5,5 -1.272,-3.467 -2.272,-7.134 -3,-11 -0.788,-1.27 -1.788,-2.27 -3,-3 -1.574,-1.602 -2.241,-3.602 -2,-6 1.447,-0.634 2.113,-1.801 2,-3.5 -1.459,-2.627 -3.459,-4.794 -6,-6.5 -2.643,-2.734 -3.643,-6.067 -3,-10 7.452,2.673 10.619,0.007 9.5,-8 2.508,-3.012 5.342,-5.679 8.5,-8 0.825,-3.622 1.325,-7.289 1.5,-11 4.699,-3.712 4.532,-7.212 -0.5,-10.5 -4.989,-0.499 -9.989,-0.666 -15,-0.5 7.064,-5.128 15.064,-7.462 24,-7 8.357,-0.433 16.024,1.567 23,6 z"
         id="path2223" />
    </g>
    <g
       id="g2229">
      <path
         style="opacity:1"
         fill="#30d48b"
         d="m 669.5,643.5 c 2.448,-0.49 4.115,0.343 5,2.5 -0.288,5.299 -2.955,7.632 -8,7 -0.559,-0.725 -0.892,-1.558 -1,-2.5 1.351,-2.344 2.684,-4.678 4,-7 z"
         id="path2227" />
    </g>
    <g
       id="g2233">
      <path
         style="opacity:1"
         fill="#1aacce"
         d="m 655.5,637.5 c -0.481,3.022 -1.147,6.022 -2,9 -1.122,1.13 -2.456,1.797 -4,2 0.645,-1.312 1.645,-2.312 3,-3 0.814,-2.266 1.314,-4.6 1.5,-7 0.383,-0.556 0.883,-0.889 1.5,-1 z"
         id="path2231" />
    </g>
    <g
       id="g2237">
      <path
         style="opacity:1"
         fill="#2fd094"
         d="m 661.5,632.5 c 0.597,0.235 0.93,0.735 1,1.5 -1.281,3.044 -3.615,4.21 -7,3.5 -0.617,0.111 -1.117,0.444 -1.5,1 -0.186,2.4 -0.686,4.734 -1.5,7 -1.355,0.688 -2.355,1.688 -3,3 -1.879,0.841 -3.879,1.175 -6,1 0.219,-1.175 -0.114,-2.175 -1,-3 -3.123,-1.882 -5.789,-4.215 -8,-7 0.481,-2.814 2.148,-4.148 5,-4 -1.618,0.951 -2.951,2.284 -4,4 1.561,0.847 3.061,0.514 4.5,-1 1.399,0.727 2.899,1.227 4.5,1.5 -1.756,0.202 -3.422,0.702 -5,1.5 1.151,1.231 2.317,1.231 3.5,0 0.333,1.333 0.667,2.667 1,4 1.751,-1.309 3.251,-0.975 4.5,1 0.781,-1.229 1.281,-2.562 1.5,-4 0.308,0.808 0.808,1.475 1.5,2 0.814,-2.266 1.314,-4.6 1.5,-7 1.356,-0.88 2.856,-1.214 4.5,-1 -0.157,-1.373 0.01,-2.707 0.5,-4 1.376,2.625 2.542,2.625 3.5,0 z"
         id="path2235" />
    </g>
    <g
       id="g2241">
      <path
         style="opacity:1"
         fill="#30da78"
         d="m 657.5,617.5 c 2.099,1.112 4.433,1.779 7,2 0,1.333 0,2.667 0,4 -1.208,0.734 -2.541,1.067 -4,1 0.333,2.667 0.667,5.333 1,8 -0.958,2.625 -2.124,2.625 -3.5,0 -0.49,1.293 -0.657,2.627 -0.5,4 -1.644,-0.214 -3.144,0.12 -4.5,1 -0.186,2.4 -0.686,4.734 -1.5,7 -0.692,-0.525 -1.192,-1.192 -1.5,-2 -0.219,1.438 -0.719,2.771 -1.5,4 -1.249,-1.975 -2.749,-2.309 -4.5,-1 -0.333,-1.333 -0.667,-2.667 -1,-4 -1.183,1.231 -2.349,1.231 -3.5,0 1.578,-0.798 3.244,-1.298 5,-1.5 -1.601,-0.273 -3.101,-0.773 -4.5,-1.5 -1.439,1.514 -2.939,1.847 -4.5,1 1.049,-1.716 2.382,-3.049 4,-4 2.252,-0.416 3.752,-1.749 4.5,-4 0.175,-2.657 0.008,-5.324 -0.5,-8 1.419,-1.651 2.753,-3.484 4,-5.5 2.593,-0.537 5.093,-1.37 7.5,-2.5 1.376,0.184 2.209,0.851 2.5,2 z"
         id="path2239" />
    </g>
    <g
       id="g2245">
      <path
         style="opacity:1"
         fill="#21b3c2"
         d="m 643.5,623.5 c 0.508,2.676 0.675,5.343 0.5,8 -0.748,2.251 -2.248,3.584 -4.5,4 0.622,-1.127 1.455,-2.127 2.5,-3 0.181,-3.195 0.681,-6.195 1.5,-9 z"
         id="path2243" />
    </g>
    <g
       id="g2249">
      <path
         style="opacity:1"
         fill="#824b1b"
         d="m 519.5,627.5 c 1.58,2.763 3.413,5.43 5.5,8 1.833,8.833 -1.667,12.333 -10.5,10.5 -4.455,-1.437 -8.122,-4.104 -11,-8 -18.83,-13.815 -34.33,-10.982 -46.5,8.5 -1.237,3.56 -1.737,7.227 -1.5,11 -3.056,-1.763 -4.889,-4.43 -5.5,-8 -0.255,-17.25 8.245,-26.917 25.5,-29 11.527,1.097 21.194,5.93 29,14.5 9.226,5.281 14.226,2.781 15,-7.5 z"
         id="path2247" />
    </g>
    <g
       id="g2253">
      <path
         style="opacity:1"
         fill="#34d879"
         d="m 614.5,617.5 c 5.011,-0.166 10.011,10e-4 15,0.5 5.032,3.288 5.199,6.788 0.5,10.5 -0.175,3.711 -0.675,7.378 -1.5,11 -3.158,2.321 -5.992,4.988 -8.5,8 1.119,8.007 -2.048,10.673 -9.5,8 -1.793,0.384 -2.793,1.55 -3,3.5 0.83,3.328 2.83,5.494 6,6.5 2.541,1.706 4.541,3.873 6,6.5 0.113,1.699 -0.553,2.866 -2,3.5 -3.076,-3.052 -6.41,-5.886 -10,-8.5 -3.986,-0.499 -7.986,-0.666 -12,-0.5 -3.28,-15.703 0.054,-29.703 10,-42 2.752,-2.763 5.752,-5.097 9,-7 z"
         id="path2251" />
    </g>
    <g
       id="g2257">
      <path
         style="opacity:1"
         fill="#33b9b5"
         d="m 661.5,616.5 c 1.372,1.012 2.705,2.012 4,3 0.268,1.599 -0.066,2.932 -1,4 0,-1.333 0,-2.667 0,-4 -2.567,-0.221 -4.901,-0.888 -7,-2 1.599,0.268 2.932,-0.066 4,-1 z"
         id="path2255" />
    </g>
    <g
       id="g2261">
      <path
         style="opacity:1"
         fill="#844b19"
         d="m 933.5,622.5 c -5.905,-0.584 -8.572,-3.918 -8,-10 4.034,-0.005 8.034,-0.338 12,-1 -0.565,4.037 -1.899,7.703 -4,11 z"
         id="path2259" />
    </g>
    <g
       id="g2265">
      <path
         style="opacity:1"
         fill="#edb264"
         d="m 971.5,590.5 c 0.12,1.086 0.787,1.753 2,2 3.618,-0.846 7.285,-1.18 11,-1 -4.4,1.604 -9.066,2.271 -14,2 -0.237,-1.291 0.096,-2.291 1,-3 z"
         id="path2263" />
    </g>
    <g
       id="g2269">
      <path
         style="opacity:1"
         fill="#9a4f06"
         d="m 620.5,687.5 c 1.316,2.587 1.983,5.587 2,9 -0.076,3.698 -0.409,7.365 -1,11 0.862,2.267 2.529,3.267 5,3 0,0.333 0,0.667 0,1 -3.212,0.394 -5.546,-0.772 -7,-3.5 0.945,-6.788 1.278,-13.621 1,-20.5 z"
         id="path2267" />
    </g>
    <g
       id="g2273">
      <path
         style="opacity:1"
         fill="#824b1a"
         d="m 532.5,673.5 c 2.731,1.571 4.565,3.905 5.5,7 1.204,13.539 -1.963,25.872 -9.5,37 -3.726,0.323 -7.393,-0.011 -11,-1 2.006,-4.013 4.506,-7.68 7.5,-11 5.164,-10.01 7.664,-20.677 7.5,-32 z"
         id="path2271" />
    </g>
    <g
       id="g2277">
      <path
         style="opacity:1"
         fill="#804a1b"
         d="m 1491.5,690.5 c 2.08,0.124 3.58,1.124 4.5,3 0.79,3.134 0.46,6.134 -1,9 -6.92,4.545 -14.09,8.712 -21.5,12.5 -9.14,3.179 -17.31,1.679 -24.5,-4.5 -1.41,-2.15 -2.24,-4.484 -2.5,-7 5.08,3.648 10.75,4.815 17,3.5 10.11,-4.22 19.44,-9.72 28,-16.5 z"
         id="path2275" />
    </g>
    <g
       id="g2281">
      <path
         style="opacity:1"
         fill="#814a1b"
         d="m 1037.5,710.5 c -1.74,3.25 -4.08,6.084 -7,8.5 -6.1,3.77 -12.44,7.103 -19,10 -5.66,1.112 -10.5,-0.388 -14.5,-4.5 -1.009,-1.525 -1.509,-3.192 -1.5,-5 5.1,0.325 10.1,-0.175 15,-1.5 4.07,-3.063 8.4,-5.73 13,-8 3.2,-2.869 6.04,-6.035 8.5,-9.5 1.6,3.548 3.44,6.882 5.5,10 z"
         id="path2279" />
    </g>
    <g
       id="g2285">
      <path
         style="opacity:1"
         fill="#814b1c"
         d="m 1113.5,705.5 c -2.86,2.597 -6.19,4.43 -10,5.5 -6.78,0.799 -13.45,0.299 -20,-1.5 -2.96,11.163 -10.3,16.496 -22,16 -11.15,0.158 -18.82,-4.842 -23,-15 3.36,2.347 7.03,4.181 11,5.5 14.24,2.716 23.91,-2.617 29,-16 6.87,1.39 13.87,1.723 21,1 5.37,-2.538 10.04,-6.038 14,-10.5 1.28,5.051 1.28,10.051 0,15 z"
         id="path2283" />
    </g>
    <g
       id="g2289">
      <path
         style="opacity:1"
         fill="#814a1b"
         d="m 1393.5,663.5 c -6.47,2.951 -11.97,7.284 -16.5,13 -7.42,11.175 -15.09,22.175 -23,33 -10.49,11.246 -22.99,14.079 -37.5,8.5 -5.4,-2.74 -10.24,-6.24 -14.5,-10.5 -7.69,8.676 -17.19,14.509 -28.5,17.5 -11.42,3.093 -19.92,-0.407 -25.5,-10.5 -11.38,11.125 -24.54,13.958 -39.5,8.5 -4.3,-2.459 -7.3,-5.959 -9,-10.5 15.98,7.066 30.14,4.4 42.5,-8 2.11,4.448 5.28,7.948 9.5,10.5 17.85,2.167 32.69,-3.666 44.5,-17.5 19.41,19.215 38.07,18.549 56,-2 7.2,-12.031 15.36,-23.365 24.5,-34 5.58,-5.604 12.25,-8.937 20,-10 -0.24,4.227 -1.24,8.227 -3,12 z"
         id="path2287" />
    </g>
    <g
       id="g2293">
      <path
         style="opacity:1"
         fill="#814b1c"
         d="m 920.5,702.5 c -4.831,4.663 -9.831,9.163 -15,13.5 -10.277,5.143 -20.943,9.143 -32,12 -13.449,3.793 -24.449,0.293 -33,-10.5 -17.268,9.589 -35.601,16.089 -55,19.5 -11.832,2.32 -22.666,0.154 -32.5,-6.5 -15.62,16.539 -31.953,17.206 -49,2 -1.23,-3.232 -3.23,-5.899 -6,-8 -3.465,4.467 -7.298,8.633 -11.5,12.5 -7.606,6.161 -15.606,6.828 -24,2 -2.329,-2.826 -3.996,-5.992 -5,-9.5 5.336,3.314 11.003,3.814 17,1.5 7.448,-3.782 13.282,-9.282 17.5,-16.5 3.014,5.191 6.847,9.691 11.5,13.5 16.365,9.186 30.865,7.02 43.5,-6.5 3.966,2.214 8.133,4.047 12.5,5.5 7.333,0.667 14.667,0.667 22,0 7.852,-2.63 15.852,-4.63 24,-6 10.197,-5.003 20.531,-9.503 31,-13.5 0.936,3.459 2.936,6.293 6,8.5 8.712,3.858 17.712,4.524 27,2 9.939,-2.797 19.605,-6.463 29,-11 8.527,-5.861 15.694,-13.027 21.5,-21.5 0.499,5.657 0.666,11.324 0.5,17 z"
         id="path2291" />
    </g>
    <g
       id="g2297">
      <path
         style="opacity:1"
         fill="#854a16"
         d="m 444.5,719.5 c 12.813,0.352 25.48,2.019 38,5 -2.472,1.396 -5.138,2.23 -8,2.5 -9.6,2.54 -18.934,1.874 -28,-2 -2.582,-1.338 -3.249,-3.171 -2,-5.5 z"
         id="path2295" />
    </g>
    <g
       id="g2301">
      <path
         style="opacity:1"
         fill="#814a1b"
         d="m 655.5,728.5 c -12.351,9.365 -25.351,10.365 -39,3 -16.864,10.607 -32.53,9.107 -47,-4.5 -1,-0.667 -2,-0.667 -3,0 -7.361,24.42 -14.528,48.92 -21.5,73.5 -2.667,6.667 -5.333,13.333 -8,20 -3.63,8.041 -8.63,9.041 -15,3 -0.494,-1.634 -0.66,-3.301 -0.5,-5 3.384,-0.144 6.217,-1.477 8.5,-4 1.741,-5.143 3.741,-10.143 6,-15 8.57,-27.326 16.736,-54.826 24.5,-82.5 1,-0.667 2,-0.667 3,0 14.315,14.578 30.148,16.411 47.5,5.5 7.346,3.809 15.179,5.309 23.5,4.5 5.412,-2.554 10.746,-5.387 16,-8.5 1.677,3.389 3.344,6.722 5,10 z"
         id="path2299" />
    </g>
    <g
       id="g2305">
      <path
         style="opacity:1"
         fill="#814b1c"
         d="m 993.5,717.5 c -3.325,4.179 -7.325,7.679 -12,10.5 -8.968,4.928 -18.301,8.762 -28,11.5 -10.438,-1.11 -17.772,-6.444 -22,-16 3.334,2.334 7.001,4.167 11,5.5 18.337,-1.417 33.837,-8.917 46.5,-22.5 -0.11,4.432 1.39,8.098 4.5,11 z"
         id="path2303" />
    </g>
    <g
       id="g2309">
      <path
         style="opacity:1"
         fill="#814b1b"
         d="m 534.5,742.5 c -7.851,0.374 -15.518,-0.626 -23,-3 -4.574,1.958 -8.907,4.458 -13,7.5 -13.242,5.072 -26.909,6.739 -41,5 -7.553,-1.622 -14.053,-5.122 -19.5,-10.5 -1.122,-1.907 -1.955,-3.907 -2.5,-6 5.312,3.165 10.979,5.665 17,7.5 13.312,0.878 26.312,-0.789 39,-5 4.822,-2.672 9.489,-5.505 14,-8.5 10.022,3.503 20.355,4.837 31,4 -0.176,3.227 -0.843,6.227 -2,9 z"
         id="path2307" />
    </g>
    <g
       id="g2313">
      <path
         style="opacity:1"
         fill="#fcfbf7"
         d="m 1113.5,745.5 c -3.08,14.986 -10.41,27.486 -22,37.5 -3.9,2.489 -7.9,2.989 -12,1.5 -0.39,-6.178 0.44,-12.178 2.5,-18 2.57,-2.819 4.91,-5.819 7,-9 7.96,-4.395 16.12,-8.395 24.5,-12 z"
         id="path2311" />
    </g>
    <g
       id="g2317">
      <path
         style="opacity:1"
         fill="#824a19"
         d="m 1113.5,745.5 c -8.38,3.605 -16.54,7.605 -24.5,12 -2.09,3.181 -4.43,6.181 -7,9 -2.06,5.822 -2.89,11.822 -2.5,18 -2.55,-2.078 -4.38,-4.744 -5.5,-8 -0.66,-6.048 -0.33,-12.048 1,-18 3.12,-4.459 6.62,-8.626 10.5,-12.5 9.47,-4.736 19.13,-8.902 29,-12.5 0.26,4.1 -0.07,8.1 -1,12 z"
         id="path2315" />
    </g>
  </g>
</svg>
